<?xml version="1.0" encoding="utf-8"?>
<!-- Generator: Adobe Illustrator 25.0.0, SVG Export Plug-In . SVG Version: 6.00 Build 0)  -->
<svg version="1.1" id="Capa_1" xmlns="http://www.w3.org/2000/svg" xmlns:xlink="http://www.w3.org/1999/xlink" x="0px" y="0px"
	 viewBox="0 0 108 90.7" style="enable-background:new 0 0 108 90.7;" xml:space="preserve">
<style type="text/css">
	.st0{fill:#E53251;}
	.st1{fill:#67E7E2;}
	.st2{fill:#051626;}
</style>
<path class="st0" d="M12.9,50.9l64.8-32.2c10.4-5.2,23-0.9,28.2,9.5l0,0c5.2,10.4,0.9,23-9.5,28.2L31.6,88.5
	c-10.4,5.2-23,0.9-28.2-9.5l0,0C-1.8,68.7,2.5,56.1,12.9,50.9z"/>
<path class="st1" d="M11.7,43.2L76.5,11c10.4-5.2,23-0.9,28.2,9.5l0,0c5.2,10.4,0.9,23-9.5,28.2L30.4,80.8C20,86,7.4,81.8,2.3,71.4
	l0,0C-2.9,61,1.3,48.4,11.7,43.2z"/>
<path class="st2" d="M11.7,34.4L76.5,2.2c10.4-5.2,23-0.9,28.2,9.5l0,0c5.2,10.4,0.9,23-9.5,28.2L30.4,72C20,77.2,7.4,73,2.2,62.6
	l0,0C-3,52.2,1.3,39.6,11.7,34.4z"/>
</svg>
